<?xml version="1.0" encoding="UTF-8"?><svg xmlns="http://www.w3.org/2000/svg" xmlns:xlink="http://www.w3.org/1999/xlink" height="553.5" preserveAspectRatio="xMidYMid meet" version="1.0" viewBox="15.0 19.5 278.5 553.5" width="278.5" zoomAndPan="magnify"><g fill-rule="evenodd" id="change1_1" stroke-width="0"><path d="m165 19.5q2 0 7.25 1.75l5.25 1.75-0.25 6.75-0.25 6.75 2.75-1.25q2.75-1.25 7-7t7.25-5.25l3 0.5 0.5 3.25q0.5 3.25-1.25 5.75t-2.75 8.5-0.75 13.5l0.25 7.5-7 2.25q-7 2.25-9.75 5.5t-2.75 4.25v1l3.25 2.25q3.25 2.25 6.75 2.75l3.5 0.5 4.5 5q4.5 5 18 13.75t17.25 13.75 9.25 14 10.5 17.5l5 8.5 1.5-4.5q1.5-4.5 4.75-7.75t8.75 0.25l5.5 3.5-5.25-7.75q-5.25-7.75 0.5-14.5t8.75-8.75 7-1.5l4 0.5 1.25 4.75q1.25 4.75-0.75 14.25t-2.75 17.25 4 9l4.75 1.25-1.75 5.75q-1.75 5.75-5.25 10.25t-3.75 4.75l-0.25 0.25 0.5 11.5 0.5 11.5-3 8.5q-3 8.5-9.5 71.5t-6.5 63.5-5 40.5-3.75 47.75 2.75 11.25-1.5 4.25l-3 0.75 1.25 8.5q1.25 8.5 0.75 9.5l-0.5 1-4.25 3.25q-4.25 3.25-17.75 3.75l-13.5 0.5-5 5.5q-5 5.5-9.5 4.5l-4.5-1-1.25 3.75q-1.25 3.75-0.25 10.75l1 7-4 5-4 5-0.25 8-0.25 8 4.75 1 4.75 1-2.5 5.5q-2.5 5.5-4.5 8.5t-2.75 12.75l-0.75 9.75-2 0.25q-2 0.25-2.5-9.25l-0.5-9.5-4.5 8.75q-4.5 8.75-5 9.25l-0.5 0.5-1.25-1.75q-1.25-1.75-3.75-3.25t-6-1.5h-3.5l-2-5.5q-2-5.5-5.75-9.75t-7-4-4.75 6.25l-1.5 6 2 1q2 1-0.25 1.5t-6.5-3-7.5-7l-3.25-3.5 0.25 9q0.25 9-0.25 11.5l-0.5 2.5-1.5-2q-1.5-2-4-10t-6-11-4-6.5l-0.5-3.5 3.25-2.25q3.25-2.25 5.75-2.5l2.5-0.25-3.75-12q-3.75-12-6.25-22.5l-2.5-10.5-4.5 1q-4.5 1-8-3t-3.75-4.25l-0.25-0.25-8.5-1q-8.5-1-16-1t-9.5-1l-2-1-3.25-5.25-3.25-5.25 2-12 2-12 2.25-2q2.25-2-2-38.5t-7.75-71-9.25-78.25-7.5-45l-1.75-1.25 0.25-13 0.25-13-2.25-1q-2.25-1-5-5.25t-3.75-4.5l-1-0.25v-11l5.5-0.75 5.5-0.75-1.25-3.75q-1.25-3.75-3-21.5l-1.75-17.75 8 2.5q8 2.5 14.25 8.75t12 16 7.75 10.5l2 0.75-1.75-4q-1.75-4 5-16.75t17.75-23.25 21-15.25 10.25-8.75l0.25-4 5.75-2.75q5.75-2.75 7.5-6l1.75-3.25-2.75-1.75q-2.75-1.75-8-3l-5.25-1.25-1-6q-1-6-5-18l-4-12 2.25-2.25q2.25-2.25 8.5 0t9 7.25l2.75 5 1-8.25q1-8.25 9-8l8 0.25 0.5 8 0.5 8 5-0.25 5-0.25 1.25-3.25q1.25-3.25 3-8.5l1.75-5.25h2zm-144 143.75l1-0.25v1.5q0 1.5-1.5 1.5h-1.5l0.5-1.25q0.5-1.25 1.5-1.5zm57-2.25q0-1 31.5-0.5t31.5 1.5 6.5 1.25l6.5 0.25-1.5 0.5q-1.5 0.5-5 0.75t-3.5 1.25-3.5 1.25-28.5 0.25-52.5-0.25-27.5 1.25-0.5 2-1-1.25l-0.5-1.75-2.5-1q-2.5-1 26.5-1.5l29-0.5-7-0.5-7-0.5 4.5-0.75q4.5-0.75 4.5-1.75zm-53.5-41q1-3 3.75-1.25t6.25 4.25 7.25 7.25 7.25 11.75 3 10.5-0.25 4.5-1.25 1.25-6.75 0l-5.25-0.25 0.75-3.25q0.75-3.25 4.5-5.5t3-5.5-1.5-4-2.25-4.25-4.5-5.5-3.75-2.75-2.25-1-2.5-2-2.5-2-1.5 4-1 4.5l-1 0.25-0.25-4q-0.25-4 0.75-7zm22.75 51.5l0.25-1.5 0.25 1.5q0.25 1.5 3.75 1.75t11 0.5l7.5 0.25 0.5-1.75q0.5-1.75 22.5-1.75t45.5 0 45 0 23.5 0.5l2 0.5-6 0.25q-6 0.25-6 1.25t4 1 4 1-22 1.25-69.5 0.25-68-0.25l-20.5-0.25 0.5-1.25q0.5-1.25 11-1.5t10.75-1.75zm-9.75-37q1-1.5 2 0t1.25 2.5-2.5 2-4.25 3.5-2 3.5-0.25 3.75 1.25 3 1.25-0.75l0.25-1 1.75-1.25q1.75-1.25 2.5-0.5t-0.75 2.75-1.75 4-4 1.5-4-5.25 0.75-5 2.5-4.75l1.5-4.5 1.75-1q1.75-1 2.75-2.5zm-7.5-5q0.5-0.5 1.25 1t2.25 2.25 0.25 1.5-2.25 2.25l-1 1.5-0.5 0.5q-0.5 0.5-1-3t0-4.5l0.5-1 0.5-0.5zm4.5 51.5q2.5-0.5 3.5 0t-2 0.75-3.5 0l-0.5-0.25 2.5-0.5zm-1.25 20.25q0.25-0.25 0 1t18.25 1.5l18.5 0.25v-1q0-1-5.5-1.25l-5.5-0.25 6.25 0.75q6.25 0.75 6.5 2.25t-20 1l-20.25-0.5 0.75-1.75q0.75-1.75 1-2zm-0.75-12.75v-1.5l0.25 1.25q0.25 1.25 0 1.5l-0.25 0.25v-1.5zm8.75-7.5q0.25-1 0.5-0.75t56.25 0.25 57 0.5l1 0.5-3.5 1q-3.5 1-2.5 2t-0.5 1.5 0.25 1.75 1.5 1.5-1.75 0.5-1.5 1.25 2 1 2 1-3.25 0.5-4-5.25-2.25-5l-1.5-0.25 1 5.75q1 5.75 1.5 6.25t23 1.5l22.5 1-0.5 0.5q-0.5 0.5-74 0.5t-74.5 0-3.75-0.25l-2.75-0.25-0.25-2.75q-0.25-2.75 0-3t0.5 1.75 2.25 2.25 5.5-0.25 10.75-1.25 7.5-1.75 2.75-1 3 1.25 3 2l2.5 0.75-1-6.5-1-6.5-2 0.5q-2 0.5-2.5 3.25t-2.5 3l-2 0.25v-4q0-4-2.5-3.75t-6 0.25h-3.5l-3.5-0.25q-3.5-0.25-3.25-1.25zm-2.25-18.75q6-0.25 5.5 0.5t-2.5 0.75h-2l-3.5-0.5q-3.5-0.5 2.5-0.75zm0-20.75q2 0 4 0.25t1.5 3-1.25 2.5-0.75-1.75v-1.5l-0.25-0.25q-0.25-0.25-1.75-0.5t-2 1.75-2 2-0.5-2.75 3-2.75zm-3 69q1 0 1.25 0.25t3.25 24.75 6 54.5 4.75 47.75 1.5 18l-0.25 0.25-2-15.5q-2-15.5-8-69t-6-54 0-2.5v-2l-0.75-1.25q-0.75-1.25 0.25-1.25zm5.5-23.25l2.5-0.25v3l-2.75-1q-2.75-1-2.5-1.25t2.75-0.5zm-2.75 4.5q0.75-0.75 1.5-0.5t2.75 0.75l2 0.5-0.5 0.5q-0.5 0.5-3.25 0.25t-3-0.5l-0.25-0.25 0.75-0.75zm3.25-21.25h3-6 3zm4 30.5q-1-0.5 0 0l1 0.5-1-0.5zm3.5 9.25q3.5-0.25 4.5 0.5t3 0-0.25 5.25-3.25 8.5l-1 2.5 1 0.5q1 0.5 4.75-8.5t23.75-7.5l20 1.5 0.5 36.25q0.5 36.25-0.5 34.5t-3.25-0.25-6.25 9.5l-4 8-1.25 3.5q-1.25 3.5 0 2.5t5.75-10.5l4.5-9.5 1 2.5q1 2.5 4.5 15t3.5 15 1.5 28 2.75 58.5l1.25 33-21.5-0.25-21.5-0.25-0.75-1.75q-0.75-1.75-5.25-41.25t-5.5-47-2.5-21.5-3-28-4.75-50.25-2.25-37.25 4.5-1.25zm-2-48.75q1-1.5 1.25-0.5t4.75 1 4.5-1 1.5-0.25 4.5 1 2.5 1l-0.5 0.75-9.75-0.25-9.75-0.25 1-1.5zm1.5 26q0.5-0.5 0.75-0.25t2.25 0.75l2 0.5-0.5 0.5q-0.5 0.5-2.75-0.25t-1.75-1.25zm3.5 14h4.5-9 4.5zm-3.5-9v-1.5l3 0.5q3 0.5 3 1.5t-3 1-3-1.5zm4.5 171v-6.5l2.5 21.5q2.5 21.5 2.5 26v4.5l-0.5-1.5q-0.5-1.5-2.5-19.5t-2-24.5zm14.5-211q0.5-0.5-0.25 1.25t-1.25 2.25-6.25-0.25-6-1.75 2.25-0.25l2.5 0.75 4.25-0.75q4.25-0.75 4.75-1.25zm-11.75 310q-0.25-5.5 0.75-5.5h1l-0.25 6-0.25 6-0.5-0.5q-0.5-0.5-0.75-6zm9.25-316.75q2.5-0.25 3.25 0.5t0.25 2.75l-0.5 2-1.25-1.75q-1.25-1.75-2.75-1.5t-1.5-0.75 2.5-1.25zm-1.5 326.25v-2h1q1 0 1 2v2h-1q-1 0-1-2zm1-331v-1l6.75 1q6.75 1 5.75 1.5t-1.25 0.25l-0.25-0.25-5.5-0.25q-5.5-0.25-5.5-1.25zm3 321q0.5-2 1-1.5t0.75 2.5l0.25 2-1.25-0.5q-1.25-0.5-0.75-2.5zm2.5-324.5h2.5l-0.5 0.5q-0.5 0.5-2.5 0l-2-0.5h2.5zm-2.25 332l-0.25-1.5 1.25 0.5q1.25 0.5 1.5 2l0.25 1.5-1.25-0.5q-1.25-0.5-1.5-2zm3.75-336.25q2-0.25 2 0.75t-2.5 0.75l-2.5-0.25 0.5-0.5q0.5-0.5 2.5-0.75zm28.5-11.25q7.5-0.5 10 1.5t3.5 3.5 3 1.5 4.25 1.25 3.25 4.25 1.25 4.5 2.25 2 2.25 2.5 1 4.75 1.75 4.25 5 2.5 5.75 0.25 2-1.75-0.75-1-1-2 2.25-1.5 1.75 3l-0.5 2.5-0.25 2q-0.25 2-21.75 2h-21.5l0.5-0.5q0.5-0.5 1.5-0.5t1.75-0.5 2 0 2.5-3.5 4.25-7.5 3.25-7.25-1.25-4.25-2.75 0.25-3.25 4.25l-2 3.5 0.5-3q0.5-3 1-5.5t0-3.5l-0.5-1-1.75-0.75q-1.75-0.75-3 1.5t-1.5 5.25-1.25 3-1.75-4.5-1.5-5.75-2.75-2.25-3-0.75-1.25 2.75 2.75 10 4.25 14-3.75 6.5-4.75-2-1.25-5l-1.5-3-1.75-1.25q-1.75-1.25-3.5-1t-1 3 1.75 3.75 2.5 1.25 2 2-9.75 1.5l-10.25-0.25 1.5-2.5q1.5-2.5 1.75-3.5t1.75-1 2.25-1 2-0.5 1.75-2.75 1.5-3.5 0.75-4.25l-0.25-4 3.5-3q3.5-3 5-5.5t1.75-2.75 7.75-0.75zm-29.5 9q0-1 1.5-0.75l1.5 0.25-1.5 0.75q-1.5 0.75-1.5-0.25zm0 325.5q0-1.5 5.25 0t5 2.25-2.75 1.75-4-0.5l-1.5-1.5-1-0.25q-1-0.25-1-1.75zm0.25 7.5q-0.25-3 0.75-3h1l0.25 2.5q0.25 2.5-0.25 4t-1 0.5-0.75-4zm2-336.5q-0.25-1.5 1.75-1.25l2 0.25-1.75 1.25q-1.75 1.25-2-0.25zm25.75 314q2 0 26-0.25t24.5 1 4 2.25l3.5 1-0.5 0.5q-0.5 0.5-35 0.5t-40.5-0.5l-6-0.5 11-0.25q11-0.25 11-2v-1.75h2zm-21.5-304.25q1.5-0.25 1.5 0.75t-1.5 0.25l-1.5-0.75 1.5-0.25zm-1 65q-0.5-1.25 35-1.25t35.5 1.5 5.5 1.25 21.25 0 16 0 3.25-0.25h3l4-0.25q4-0.25 3.5 1t-10.5 1.25-17 0.5-17 0-12.75-0.25-3.25 1.25l-0.5 1-0.25-1q-0.25-1-29.75-1.25t-33 0-3-1l0.5-1.25-0.5-1.25zm0.5-79.25q0-1 1.5-0.75l1.5 0.25-1.5 0.75q-1.5 0.75-1.5-0.25zm2 328.5q0.5-1.5 1.25 0.5l0.75 2-1.25-0.5q-1.25-0.5-0.75-2zm0.75-325.5q0.75-2 1.25-0.5t-0.75 2l-1.25 0.5 0.75-2zm5.75 340.5q2.5 0 3 0.5t5 2l4.5 1.5 1 0.25q1 0.25 1 2t-6-0.75-9-2.75-2.75-1.25l0.25-1 0.25-0.25q0.25-0.25 2.75-0.25zm-2-13.5q-0.5-3 0.5-3t1.5 3l0.5 3h-1q-1 0-1.5-3zm13.5-3.5q0.5-0.5 2.25 0.25t24.75 1l23 0.25-1.5 7.75q-1.5 7.75-1.75 8t-0.25 4.25v4l-2.5 2.5q-2.5 2.5-3.5 8t-0.5 10.5l0.5 5 0.75 1.25q0.75 1.25 1.75 1.5t1 1.25 2.25 2 3.25 4.5 0.5 6l-0.5 2.5-0.75 0.25q-0.75 0.25-9.25 0l-8.5-0.25-0.75-6q-0.75-6-2.25-13t-4.5-15-4-9.5-1.25-3-1.25-1.5-2.25-2-6.5-6.75-6.25-5-1.5-1.5-3.25-3-3-2.75l-0.25-1h2.75q2.75 0 3.25-0.5zm-5.75 8l0.25-2.5 0.5 0.5q0.5 0.5 0.75 2.5t-0.75 2-0.75-2.5zm39.25-366q3.5 0 4 0t1.5-0.25 1 1.25 5.5 0.25 13-1.5 7.5 0.75v1l-1.75 0.5q-1.75 0.5-1.5 1.5t-9.25 1-9 4.5 13.5 4.25 15.5-0.5 2.5 0.75-4 1.25l-4 0.25-10-0.25q-10-0.25-10 0.75t8 1 8 1-8 1h-8v1q0 1 9.5 1t9.5 1-9 1-8.5 1.25 11 1 10.25 0.75l-0.25 1-0.25 0.25q-0.25 0.25-10.25 0.5t-9.5 1.5 8.5 1 8 1.25-8 1.5-7.5 1.25 2.5 1.25h2l7-0.25q7-0.25 6.5 1t-9 1.5-8.5 1.25 9.5 0.75 10.25 0 1 1.25-0.75 1.25-10.75 1-9.5 1 10 1 10 0.5 2.25-0.25h2l-1 1q-1 1-9.5 1h-8.5l-1.25 0.25q-1.25 0.25-1.5 1.25t8 1 8.5 1-0.75 1.25-5.5 1-5 2.5l-0.5 1.75-2.5-0.25q-2.5-0.25-3-1.5t-4.25-1-4.5 2.25-2.75 1.25l-2-0.75-0.25-0.25q-0.25-0.25-1.5-5.5t-3.5-8-3.75-5.75-1.75-3.25l-0.25-0.25-3-1q-3-1-4.75-1.75t-2-1.75-2-2-2-1.75-9.75-1-9.5-1.25 7.5-1.25 11.5 0 4-0.75v-1l-4.5-0.25q-4.5-0.25-11.5 0t-7-0.75 12.5-1.25 12-0.75-10.5-1l-10-0.5 1.5-0.5q1.5-0.5 11.25-1.25t9.5-1-10.75-0.25-11.5-1 10.75-1.25 12-1.25-9.25-1-9.5-1 9.5-1.25 12 0 3.5-3 4.5-3.25zm-34 385.5v-2l0.5 1.5q0.5 1.5 0 2l-0.5 0.5v-2zm2.75-343.75q0.25-0.25 0.75 0.75l0.5 1 0.5 1.5q0.5 1.5 0 3.5t-1.25-2.25-0.5-4.5zm-0.75 331.25q-0.5-3.5 0.5-3.5t1.5 3.5l0.5 3.5h-1q-1 0-1.5-3.5zm3.25-174.5q-0.75-3 1.5-2t3 8.5l0.75 7.5h-1q-1 0-0.75-1.5t-1.25-5.5l-1.5-4-0.75-3zm1.5 179l0.25-3 0.5 0.5q0.5 0.5 0.75 3t-0.75 2.5-0.75-3zm3-259.5q1.25-0.5 1.75 1l0.5 1.5 0.5 13q0.5 13 2.5 65t4.25 100 1.25 48h-1l-0.25-1.5q-0.25-1.5-1.25-22.5t-1.5-34-2.5-56.5-2-44-1.5-27-1.5-28-0.25-8 1-7zm1 259.75q0.25-0.25 0.75 0.25t1.25 2.75 1.75 2l1-0.25 1 6.5q1 6.5 0 6.5t-2.25-5.5-2.25-5.5-1.25-3.25 0-3.5zm1.25-324.75q1-2.5 0.5 2t-1 6-0.5-2v-3.5l1-2.5zm6.5-3.25q1-0.25 0 2t-1.5 3.5-1.5 1.25 0.5-3.25l1.5-3.25 1-0.25zm1 70.75v-2l35 0.25q35 0.25 51.5 0.25t19 0.25l2.5 0.25v1q0 1-4.5 1.5t-4.5 1.5 4 1 4 1.75-0.5 2.25-5 0.75l-4.5 0.25v1q0 1 3 0.75t5 0.75l2 1-0.25 1.25q-0.25 1.25 0 2.75t-1.5 1-1.5-2.5-2.25-2-0.75 3.5 3.5 4 1.75 2-3 2.25-1.75 2.5 2 2.5 1.5 1 0.5 2-0.25 2.5 0 1.75-0.25 2 0 1.25 0.25 1.25 0.25 2.25-1.5 2-16 2.5-14.5 2l-0.25 0.25 15.75-0.25q15.75-0.25 16 0.75l0.25 1h-1.5q-1.5 0-1.5 1t1.5 1 1 2.5-2 2.5-1.5 1 1.5 1 1.5 1.5-1.75 2.5 0 1.5l1.75 0.5v1.5q0 1.5-5.5 1.5t-6-1.75-13.5-1.25-15.75-0.25l-2.75-0.75-2.75 1.75q-2.75 1.75-5 3t-3.5 3-3.25 2.75-7 1h-5l-2.5-3.5q-2.5-3.5-3.5-3.75t-1-1.25-2.5-1.25l-2.5-0.25-3 1.75q-3 1.75-4.5 4t-3 3.75-2 2-2 0.5h-1.5l-2.5-1.75q-2.5-1.75-2.75-6.75t-0.75-13.5-1.25-32 0.25-23.5 1-2zm-0.5-181.5q0.5-2.5 1.5-2.5t1.5 2.5l0.5 2.5h-4l0.5-2.5zm62.5 252q2 0 3.75 1.75t4 3.5l2.25 1.75 4-0.5q4-0.5 7.25-2.25t4.5-2.5 2.75-1l1.5-0.25-3.25 13.5q-3.25 13.5-5.75 20.5t-4.25 9-3 2.5-1.75 1.5l-0.5 1-0.5 0.5q-0.5 0.5 0-1.5t1.75-6.25 0.75-5.5-2-1.25-2 1.75-1.5 2-2.75 4.25-3.25 6.5-4.25 6.25-3.25 5-1.5 1.25h-1l1.25-2q1.25-2 4.25-7.5t4.25-10.25 0.5-4.5-2.75 5.75-3 7l-1 1.5 0.5-2.5q0.5-2.5 2-6.5t1.25-5.25-1.25-1.5-1.5 2.75-1.25 2.5-0.5-2.5-0.75-2-2.5 4.75-2.5 4.5-2 0.75-2 1-1.75 5.5l-0.75 5.5-0.5-11-0.5-11-0.5 0.5q-0.5 0.5-1 4.5l-0.5 4-0.75-5q-0.75-5-1.75-5t-1.75 0.5-1.25 1 0 6 2.25 13.25 0.75 8-2.25-5.25-2-9-1.75-3.5h-1l0.75 6.5q0.75 6.5-3.25-3t-4.25-11.5-1.25-2-0.75 6-1.25 1.5-1.75-6-1.75-1.5h-1.5l0.75 5q0.75 5 0.25 4.5t-1.25-2.75-1.75-2.5-0.25 3.75-0.25 2.5-0.5 1.5 3.5 8l3 5-0.75 0.25q-0.75 0.25-3.5-3.5t-4.25-6.25l-1.5-2.5-1.75-2.25q-1.75-2.25-2-1.5t4 7.5 6.75 10.25 0.75 2.75-3-1.25-2.5-3-4.75-8.5-4.5-9-2.25-19.5l-1.25-16.5 2 1.25q2 1.25 6.75 0.5t8.5-5l3.75-4.25 2.75 0.75q2.75 0.75 6 4.5l3.25 3.75 8-0.5 8-0.5 3-3.5q3-3.5 5.5-4.5l2.5-1h2zm-39.75-256.25q1.25-1.25 1.75-0.75t2.25 7.25 10.75 6.5 8.75 0.75l-0.25 1-1.75 0.75q-1.75 0.75-6.25 1.25t-1.5 1 11.5 0.25l8.5-0.25v2.5q0 2.5-2 1.75t-8 0.25-8.5 0.5-16-0.5-14.75-1.25-1-1.5 12.75-1.25l12.5-1-13.25-0.75q-13.25-0.75-13.5-1.75t-0.25-1.75 1-0.25l1 0.5 5 0.25 5 0.25-0.5-6.75q-0.5-6.75 0.25-6.5t1 0.5 2.25 0.25h2l1.25-1.25zm-20 472l0.25-0.25 0.75 2.5q0.75 2.5-0.25 2.5t-1-2.25 0.25-2.5zm1.75-130.75l-1.5-35.5 1.5 2.5q1.5 2.5 5 8t7.25 8.25 9.25 4l5.5 1.25-0.25 8.5q-0.25 8.5 0.25 41l0.5 32.5-0.25 0.25q-0.25 0.25-12.25 0.25h-12l-0.25-0.75q-0.25-0.75-0.75-17.75t-2-52.5zm1.5 133.5q0-4 1 0.5t0.5 5.5-1-0.5l-0.5-1.5v-4zm7.5-448.25q3-0.25 4.25 2t1.5 3.25-5.75 1.5-6-0.5 1.25-1.5l1.25-0.5 0.25-2q0.25-2 3.25-2.25zm38.75 481.25q-0.25-2 1-1.25t2.25 1 0.75 2.75l-0.25 2.5-0.25 1q-0.25 1-11.25 1.25t-24-0.5-12.5-2.5l0.5-1.75 3-0.25q3-0.25 3-1.25t1-1 1 1.5 18 1 17.75-2.5zm-24.75-465q0-1 2.5-1h2.5l0.5 2.5q0.5 2.5 2.75 2.5t2 0.75-0.75 2 2 0.75 2 1.75-8 2.5-7.5 1.25v1h9q9 0 9 1.5v1.5h1.5q1.5 0 1.5 1t-6.5 0.75-15.25-0.5-9.5-2l-0.75-1.75 4.5-0.25q4.5-0.25 4.5-1.25t-5-1-5-1 3.5-2 3.5-2.5 2-2 2.5-1.75 1.5-1.5 1-1.25zm-10.5 263.5q0-1.5 0.5-1l0.5 0.5 1.5 2.5 1.5 2.5 2 4q2 4 2.25 5.75l0.25 1.75-1.75-2.75q-1.75-2.75-4.25-7.25t-2.5-6zm3.5 212.5q3-0.5 3.25 0.75t-1.5 4-2.5 1.5-1.5-3.5l-0.75-2.25 3-0.5zm3-208q-0.5-2 1.5 1t4 6.5 1.25 3.75-2.25-2.25l-1.5-2.5-1.25-2.25q-1.25-2.25-1.75-4.25zm7.5-284.75q1.5-0.25 2 3.25t-4.5 3.5-4.5-3 3-3.25l2.5-0.25 1.5-0.25zm-2 424.25l2-2.5 0.5 0.5q0.5 0.5-0.25 6.25t-2.75 5.5l-2-0.25v2.5q0 2.5-1 2.5t0.25-6 3.25-8.5zm-4 54q0.5-3.5 2.25-3t1.75 2 0.25 3l0.25 1.5h-2.5q-2.5 0-2-3.5zm4-191.5v-1l1 1q1 1 1 2.5v1.5l-1-1.5q-1-1.5-1-2.5zm0.75 160l-0.25-1 1.25 0.5q1.25 0.5 1.5 1.5l0.25 1-1.25-0.5q-1.25-0.5-1.5-1.5zm7.25-145.75l1.5-0.25-0.5 9.75q-0.5 9.75-1.5 10t-1.25-0.75l-0.25-1 0.25-7.25q0.25-7.25 0-8.5t0-1.5 1.75-0.5zm-1.25 23q0.25-0.25 0.5 0l0.25 0.25 0.75 0.75q0.75 0.75 1.5 31.25t-0.75 30.5-1.75-1l-0.25-1v-6q0-6-0.25-30.25t0-24.5zm1.75 74.5q3-0.25 3.25 0t0.25 2.75v2.5l-0.25 1q-0.25 1-2.5 1t-2.75-0.5-0.75-3.5 2.75-3.25zm-2 67.75q0-1.5 1-1.25l1 0.25 1.25 0.75q1.25 0.75 1.5 8.25t-2.75 7.5-2.75-2l0.25-2 0.25-4q0.25-4 1.25-4t1-1-1-1-1-1.5zm1.25-15q-0.25-2.5 0.75-2.5t1.25 1.5l0.25 1.5-0.25 3.25q-0.25 3.25-1.25 3.5t-0.5-2 0.25-2.5-0.5-2.75zm2.25-448q0.5-3.5 2.5-3.5t2 1v1h2q2 0 2.5 1.75t-1 2.25-5 0.75-3-3.25zm9.5 108q7 0 6.5 0.5t-4.5 0.5h-7q-3 0-2.5-0.5t7.5-0.5zm-0.75 16.25q7.25-0.75 7.5-0.5t6.25 0.75l6 0.5-2 0.5q-2 0.5-13.5 0l-11.5-0.5 7.25-0.75zm-4 4l3.25-0.75-0.25 1.25q-0.25 1.25-3.25 0.75t0.25-1.25zm-3 155.25q-0.25-2 0.75-2t0.75 2.5l-0.25 2.5-0.5-0.5q-0.5-0.5-0.75-2.5zm41.25-216.75l1.5-0.25 0.5 2q0.5 2-1.25 2t-2.5 1.75-0.5 2 0 1.5-1.25 1.75 1.25 1.75 2.25 3.25v2l-3.25-3.25q-3.25-3.25-4.75-3.25h-1.5l-0.25 0.25q-0.25 0.25 0.25 2.75t1.25 3.75-0.25 1.5-1-0.75-1.5-1-2 0.75-2.25 1l-1.75 0.25 0.75 3.25q0.75 3.25 3.25 5.25t0.5 1.5-3.25-1.25-1 0.5 3 3 3 2.75l0.25 1-2.5-1.25q-2.5-1.25-3-1.75t-2-0.75-1.5 0.75 1 1 1 1-10.75 0-11-1.25l-0.25-0.25-0.25-0.25q-0.25-0.25 0-3t2-3 2.25 0.25 0.75 2.5 1.75 2.75 5.25 0 4.5-2 2-2 2-5.5 1.25-5.25 2-0.75 3.25-4.25 3.5-5.25 2.75-1.5 2.25-2.25 2-2.75 2.25-1zm-39.25 65.25q1.25-0.5 3 0.25l1.75 0.75-0.5 0.5q-0.5 0.5-3 0.75t-2.5-0.75 1.25-1.5zm1.25 4.25q2.5-0.25 3 1l0.5 1.25h-3q-3 0-3-1t2.5-1.25zm-1 295.75q0.5-10.5 2.25-9.5t2.25 3.5l0.5 2.5-0.75 2.75q-0.75 2.75-1.5 3.5t-1 4.25-1.25 3.5h-1l0.5-10.5zm51.25-199.5q0.25-4 5.25-3.25l5 0.75-1 0.5q-1 0.5-3.5 0.75t-2.5 1.25 2.75 1 2.5 1.75-0.75 2.75 0.5 1.25 0.5 2-2.5 2-2 1.75 2.25 1.5 2 2.5-2.25 2.5-2 1v1h2q2 0 2 2t0 2.5-1 4.25-0.75 5-1.5 2.5 0 2.5 1.5 2.75-2.75 1.5-2.5 1 2.5 1 2 2.25-1 3.25 0.5 1.25 0.5 2.75-3.5 2.5h-3l1 1.25q1 1.25 3 1t2 1.75-2.75 3-2.5 1.25 2.75 0.5 1.5 3-1.5 2.75-1.5 0.25-1 1.25 2.5 1 2 2.25-2.5 2.5-2 1.25 2 1 2 2-1.25 2.5-1.5 1.5 1 1.5 1.5 2-1.75 1.5-1 1.25 2 1.5 0.5 1.5-2.5 2.25l-2 1 2 0.75q2 0.75 1.25 7.25t-1.5 20.75-1 14.5-0.25 2.75v2.5l-1.25 0.75q-1.25 0.75-23.25 0.75h-22l-0.25-0.25q-0.25-0.25-1.25-37.75t-1.5-39.5 0-4l0.5-2 0.25-0.25q0.25-0.25 6.25-0.75t10-2.75 5.5-4.5 4-4 3.75-3.75 6.25-10 9-22.5 4.25-18.5zm-49.25 267v-2l1 1.5q1 1.5 0.5 3t-1 0.5-0.5-3zm0.5-409v-1h3v1q0 1-1.5 1t-1.5-1zm20 14q20-0.5 27 0t4 1l-3 0.5-6-0.25q-6-0.25-5.5 3.25t-1 3.5h-1.5v-3.5q0-3.5-5-3.25t-17-0.25l-12-0.5 20-0.5zm20.25 289.75q1.25-0.75 1.5-0.5t4.25 0.5l4 0.25-1.25 2q-1.25 2-5.75 7.5t-8.5 14-7 20-4 15-1.75 7.5l-0.75 4-1.5-0.25q-1.5-0.25-9.75-0.5l-8.25-0.25-0.5-0.5q-0.5-0.5-0.25-6l0.25-5.5 2-1.25q2-1.25 3.25-2t2-3.25 5-3.5 4.75-2 0.5-3v-2l-2.25-1.75q-2.25-1.75-5-2.5t-4.5-4-3.5-4.5l-1.75-1.25 0.5-4q0.5-4-0.5-7.5t-1-8.5v-5l1.25-0.25q1.25-0.25 19.25-0.25t19.25-0.75zm-39-282.75q-0.25-1 4.25-0.25l4.5 0.75-4.25 0.25q-4.25 0.25-4.5-0.75zm3.25 170.5q2-4.5 2.5-3.5t0 2l-0.5 1-1.75 3.25q-1.75 3.25-2 2.5t1.75-5.25zm-1.5-228.5v-1h3v1q0 1-1.5 1t-1.5-1zm0.25 383q-0.25-2 0.75-2t0.25 2l-0.75 2-0.25-2zm5.25-370.75l2.5-0.25-0.5 1.25q-0.5 1.25-3 1.5l-2.5 0.25 0.5-1.25q0.5-1.25 3-1.5zm4.5 227.25q2 0 0 1t-4.75 2.25-2.5 0 2.75-2.25l2.5-1h2zm-3.5-237l3.5-0.5v1.5q0 1.5-3.5 2t-3.5-1 3.5-2zm-1 34q1.5 0 3.5 0.5l2 0.5-0.5 0.5q-0.5 0.5-4 0l-3.5-0.5 0.5-0.5q0.5-0.5 2-0.5zm0.5 38.25q3-0.75 3 0.75t-3 0.75l-3-0.75 3-0.75zm-2.25 6.75q0.75-3.5 2-3.25t2 0.5l0.75 0.25 0.25 1q0.25 1-0.75 1.75t0 1 1 1.25-3 1-2.25-3.5zm3.25 145.5q1.5-2 1.5-1v1l-2 3q-2 3-1.5 1t2-4zm0 153.5q1 0 1.25 0.25t0.5 1.75l0.25 1.5h-2.25q-2.25 0-1.5-1.75t1.75-1.75zm-1.75-380.5q-0.25-1 0.25-0.25t0.25 1l-0.25 0.25-0.25-1zm3.25 17.25q1.5-0.25 1.5 1.25t-2.5 1.25l-2.5-0.25 1-1q1-1 2.5-1.25zm-1.5 23q1-0.25 1 1.25t-1.25 2l-1.25 0.5 0.25-1.75q0.25-1.75 1.25-2zm1.25-8.5l1.25-0.75 0.25 1.5q0.25 1.5-1.75 2t-1.5-0.75 1.75-2zm-0.75-85.75v-4l0.5 3.5q0.5 3.5 0 4l-0.5 0.5v-4zm2 61.5l2.5-0.5-0.5 1.25q-0.5 1.25-2.5 1.5t-2-0.75 2.5-1.5zm0.5 15.25q2-0.25 2 0.75t-2 1.25l-2 0.25v-1q0-1 2-1.25zm-0.25-30.25l0.75-1.5 0.25 1.5q0.25 1.5-0.75 1.5t-0.25-1.5zm1.75 62q2.5 0 1 0.5t-2.5 0l-1-0.5h2.5zm-1.75 374.5l-0.75-2 2.25 0.5q2.25 0.5 1.5 2.25t-1.5 1.5-1.5-2.25zm0.25-429q0-1 1.5-0.75l1.5 0.25-1.5 0.75q-1.5 0.75-1.5-0.25zm2.5 12.25l1.5-0.25-0.5 1.25q-0.5 1.25-2 1.5l-1.5 0.25 0.5-1.25q0.5-1.25 2-1.5zm-1-66.25v-3l0.5 2.5q0.5 2.5 0 3t-0.5-2.5zm2 81.5h1.5l-2 1.25q-2 1.25-1.5 0t2-1.25zm0.25-24.75l0.75-0.75-0.75 1.75q-0.75 1.75-0.75 0.75t0.75-1.75zm-0.5 15.5l1.25-1.25 0.25 1.5q0.25 1.5-1.25 1.25l-1.5-0.25 1.25-1.25zm6.5 200.25q2.25-4.5 3.75-4.5t0.25 3.5l-1.25 3.5-4.5 5.5-4.5 5.5 0.75-2.25q0.75-2.25 2-4.5t3.5-6.75zm-3.25-144.25l1.5-0.25v3l-1.75-1q-1.75-1-1.5-1.25t1.75-0.5zm-0.75 5.25q0.75-1.5 2-1t1.25 3.5-1 3.25l-1 0.25-1.25-0.25q-1.25-0.25-1.5-1.25t1.25-1 1.5-1-1-1-0.25-1.5zm0-55q-0.75-2.5 0.5-2t0.75 2.5l-0.5 2-0.75-2.5zm3.25 206zm-1.5-212.25q0.5-1.25 2.5-1.25t1.5 1.25-2.5 1.25h-2l0.5-1.25zm1.75-23l0.25-0.25 0.25 1q0.25 1-0.25 0.25t-0.25-1zm2 231l0.25-0.25-0.75 1.75q-0.75 1.75-1 2l-0.25 0.25 0.75-1.75q0.75-1.75 1-2zm0-235l0.25-0.25v3l-0.25-1.25q-0.25-1.25 0-1.5zm1.75 43.25q0-1 2.5 1l2.5 2v1q0 1-2.5-1t-2.5-3zm8 138q9 0 4.5 2.5t-7.5 2.5h-3l-1.5-2.5q-1.5-2.5 7.5-2.5zm-8.5-159.25l-0.5-1.25h3l-1 1.25q-1 1.25-1.5 0zm0.25 211.25q0.75-1.5 1-0.5t1.25 1.25l1 0.25-1 0.5q-1 0.5-2 0.25t-0.25-1.75zm4-152.75q2.75-0.75 3-0.5t1.75 0.25h1.5l2.5-0.25q2.5-0.25 2.5 0.75t-7 0.75l-7-0.25 2.75-0.75zm-0.5 6.5l0.25-0.25 1.25 0.5q1.25 0.5 0.5 2l-0.75 1.5-0.75-1.75q-0.75-1.75-0.5-2zm-0.5 6.25q-0.75-1.5 0.25-1.5t0.75 1.5l-0.25 1.5-0.75-1.5zm1.75-42.25q1.5-0.25 1 0.5t-1.5 0.25l-1-0.5 1.5-0.25zm-1.5 32.75q0-1 2.5-0.25l2.5 0.75-1.5 0.5q-1.5 0.5-2.5 0.25t-1-1.25zm2.5-27.75q1.5-0.25 1.5 0.75t-1.5 0.25l-1.5-0.75 1.5-0.25zm-0.25 40.75l-0.25-1 1.25 0.5q1.25 0.5 1.5 1.5l0.25 1-1.25-0.5q-1.25-0.5-1.5-1.5zm0.75-4q0-1 1.5-0.25l1.5 0.75-1.5 0.25q-1.5 0.25-1.5-0.75zm4-37.5q0.5-0.5 1.25 1l0.75 1.5-1.25-1q-1.25-1-0.75-1.5zm0.25-13q0.25-1.5 1.25 0.5l1 2-1.25-0.5q-1.25-0.5-1-2zm0 5.5q-0.25-1 1.75 0.25l2 1.25-1.75-0.25q-1.75-0.25-2-1.25zm1 5l-0.25-1 2 1.25q2 1.25 3.5 2.25t-0.5 1.25-2-0.75-1.25-1.5-1.5-1.5zm3.75-25q-0.5-2 1.75-0.5t2.25 3v1.5l-1.75-1q-1.75-1-2.25-3zm-0.5 37q-0.5-2 0.5-2t1.5 1.75l0.5 1.75-1 0.25q-1 0.25-1.5-1.75zm0.25 23.5l0.75-1.5 1.25 1.25 1.25 1.25-1 0.5q-1 0.5-2 0.25l-1-0.25 0.75-1.5zm-0.75 5v-1.5l1.25 0.5q1.25 0.5 1.5 1.5l0.25 1h-1.5q-1.5 0-1.5-1.5zm2.5-46.25q1.5-0.25 1.5 0.75t-1.5 0.25l-1.5-0.75 1.5-0.25zm-1.25 36.75l-0.25-1 2.5 0.5q2.5 0.5 2.5 1.5t-2.25 0.5-2.5-1.5zm2-41.75l0.25-0.25 0.25 1.25q0.25 1.25 0 1.5l-0.25 0.25-0.25-1.25q-0.25-1.25 0-1.5zm0 54.5q1.25-0.75 2 0.75l0.75 1.5-2-0.75q-2-0.75-0.75-1.5zm1.75-70.25q1 0 0 0h-1 1zm-0.5 27.5v-1l1.75 1.75 1.75 1.75-1.75-0.75q-1.75-0.75-1.75-1.75zm-0.5 39q0-1 1.5-1t1.25 1.5l-0.25 1.5-1.25-0.5q-1.25-0.5-1.25-1.5zm1.75-28l-0.75-2h1.5q1.5 0 1.5 2.25t-0.75 2-1.5-2.25zm0 39.5q0.75-1.5 1-0.25t-0.75 1.5l-1 0.25 0.75-1.5zm2.25-30.25q2-0.25 2 0.75t-2 0.25l-2-0.75 2-0.25zm-0.75-49.75q-0.25-1.5 0.75-1.5t0.25 1.5l-0.75 1.5-0.25-1.5zm3.25 343.5q1.5-0.5 2.75 0.25t1.5 1.75l0.25 1-3.75 1.5q-3.75 1.5-3-1.25t2.25-3.25zm-2.25-320l0.25-2 0.5 0.5q0.5 0.5 0.75 2t-0.75 1.5-0.75-2zm1.75-44.5q0.5-0.5 1.25 1l0.75 1.5-1.25-1q-1.25-1-0.75-1.5zm0 93.75q1-0.25 0.75 0.75l-0.25 1-0.75-0.75q-0.75-0.75 0.25-1zm0.75-60.75q0.75-1.5 1.5 0l0.75 1.5h-3l0.75-1.5zm1.5 292.5q0.75-9 1.75-9h1l-0.25 8-0.25 8-0.25 0.75q-0.25 0.75-1.5 1t-0.5-8.75zm0.5-263.5q-0.75-2.5 0.25-2.5t1 2.25-0.25 2.5l-0.25 0.25-0.75-2.5zm0.5-13l0.25-1.5 0.75 1.5q0.75 1.5-0.25 1.5t-0.75-1.5zm-0.25 22.5v-1h3v1q0 1-1.5 1t-1.5-1zm1 9.5l-0.5-1.5 0.5 1.5 0.5 1.5-0.5-1.5zm-1 4.5v-1h1q1 0 1 1v1h-1q-1 0-1-1zm1.25 223.25q0.25-0.25 0.75 0.25t-0.25 2.75-1 1 0-1.5l0.25-0.25v-1q0-1 0.25-1.25zm0-282.25l-0.25-2 2 1.25q2 1.25 2.5 2.5t1.75 1.75 2.5 2.75 2.25 2.75l1 0.5 0.75 0.75q0.75 0.75 1 2.25t-1.75 0.25-4.25-4-2.5-3.75-2.5-2-2.5-3zm0.5 61.75q0.75-0.75 2.25 0.25t1.75 2l0.25 1-2.5-1.25q-2.5-1.25-1.75-2zm0 5.75q-0.75-1.5 0.25-1.5t0.75 1.5l-0.25 1.5-0.75-1.5zm0 7q-0.75-1.5 0.25-1.5t0.75 1.5l-0.25 1.5-0.75-1.5zm0 196l0.75-2.5 0.25 2.5q0.25 2.5-0.75 2.5t-0.25-2.5zm-0.75 7v-2.5h1q1 0 1 2.5v2.5h-1q-1 0-1-2.5zm11-247.25q-7-0.75-4-0.75h3.5q0.5 0 4-0.25t3.5 0.75-7 0.25zm-10 218.75v-2h3v4h-3v-2zm0 6.5v-2.5l1.25 0.5q1.25 0.5 1 2.5t-1.25 2-1-2.5zm0.25 7q0.25-3.5 0.75-2t0.75 3.5-0.75 2h-1l0.25-3.5zm2-38.25q0.25-0.25 0.75 0.25t0.75 3l0.25 2.5h-1q-1 0-1-2.75t0.25-3zm-0.5 10.25l0.75-2.5 0.5 1.5q0.5 1.5 0.25 2.5t-1.25 1-0.25-2.5zm-0.75 8v-2.5h1q1 0 1 2.5v2.5h-1q-1 0-1-2.5zm6.25-222.75q0.75-1.75 2.5-0.75t3.5 3.25 4.5 2 3-2.25 1.75-2 1.5 2.25v2.25l-1.5 1.5q-1.5 1.5-10 0.75t-7.75-1.75 1.75 0l1 1-0.5-2.25q-0.5-2.25 0.25-4zm-3.75 13.75h1.5l-1.25 0.25q-1.25 0.25-1.5 0l-0.25-0.25h1.5zm-1.25 25l0.25-1.5 0.75 1.5q0.75 1.5-0.25 1.5t-0.75-1.5zm-0.25 12.5v-1h3v1q0 1-1.5 1t-1.5-1zm2 132.25l1-0.25v6l-1.25-0.5q-1.25-0.5-1-2.75t1.25-2.5zm-1.25 12.75q0.75-6 1-5.75l0.25 0.25 0.25 0.25q0.25 0.25 0 5.75l-0.25 5.5h-1q-1 0-0.25-6zm3 24.5q0.25-1.5 7.75-0.5t7.5 2-1 1.25 2.25 2 6.75 5.75 3 11-3.25 26.75-3 20l-0.25 0.25-0.25-0.25q-0.25-0.25-11.25-0.25h-11l-0.25-0.25q-0.25-0.25 0-5t0.25-5.5 0.5-4.5 5.75-4.5 4.5-1-5.5-0.5-5-2.25 0.75-2.25 5.5 0.25l4.5 0.5 2 1.25q2 1.25 0.75-1.25t-1.5-2.75-5.75 0-5.5-2.75 7.25-3 9.25 2.5 3 2.5-1.5-3.5-4.25-6.25 0-3 2-1.25-0.75-0.75-8 0.5-6.5-3.25 2.5-3.25 6.75 1 7.75 4.75 3.5 5l0.5 1 1.25 0.5q1.25 0.5 0-2t-4-6.25-2.25-5-2.75-2.25-5.5-2.75-3.25-2l-1-0.25 1 1.75q1 1.75 2.5 2.75t-1.5 1.5-4 0.25-0.5-5.5 5.25-4.5 5.5 2.25 0.25 2.25 0 0.75 2.75 0.75 5.25 4.25 3.25 4.5 1.25 1h1l-1-2.25q-1-2.25-5-6.75t-5.25-5.75-1.5-2.75-3.5-2.5-3.5 0.5-2.5 1-2.25-1.5v-1l0.25-1.5zm-2.5-258.5l0.25-2 1.25 2q1.25 2-0.25 2t-1.25-2zm1.75 61.25q1-0.25 1 2.75t-1.5 2.75l-1.5-0.25 1-0.25q1-0.25 1-1.25t-1-1-0.5-1.25 1.5-1.5zm-1.25 149.75l0.75-2 0.5 0.5q0.5 0.5 0.75 2t-1.25 1.5-0.75-2zm-0.75 5.5v-2.5l1.25 0.5q1.25 0.5 1 2.25t-1.25 2l-1 0.25v-2.5zm1.5-124v-1.5l0.25 1.25q0.25 1.25 0 1.5l-0.25 0.25v-1.5zm0.5 33.75q1-0.25 0.75 0.75l-0.25 1-0.75-0.75q-0.75-0.75 0.25-1zm1 63.25q1 0 1.25 1.25t0 2.75-1.25 1.5h-1v-2.75q0-2.75 1-2.75zm-1.75 9q-0.25-1.5 1.25-1.5t1.5 2v2l-1.25-0.5q-1.25-0.5-1.5-2zm-0.25 6.5v-3l1.25 1q1.25 1 1 3t-1.25 2-1-3zm2 80.75l2-0.25h1q1 0 3.5 2t2 2.5-5.5 0.75-5-2.25 2-2.75zm1.5-254.75l-2-3 2 3 2 3-2-3zm-2.5 54v-1h1q1 0 1 1v1h-1q-1 0-1-1zm0.75 93.5l0.75-2.5 0.5 0.5q0.5 0.5 0.75 2.5t-1.25 2-0.75-2.5zm0 8q-0.75-1.5 0.25-1.5t0.75 1.5l-0.25 1.5-0.75-1.5zm2.25-20.25l1-0.25v2q0 2-1.5 2t-1-1.75 1.5-2zm-1.5 86.25q0.5-2.5 3.5-1.25t3.5 2.5-3.5 1.25h-4l0.5-2.5zm-0.5 81q0-1.5 1-1.5t1.5 1.25l0.5 1.25-1.5 0.25q-1.5 0.25-1.5-1.25zm5.25 10q5.25-1.5 6.5-1.25t1.5 0 0.5 1.25-2 2.5-2.75 1.5l-0.5 0.5-0.25 0.25q-0.25 0.25-4-0.5t-4-1.75 5-2.5zm-3.5-338q0.75-1.5 1.5 0l0.75 1.5h-3l0.75-1.5zm0.25 138.5q0.5-1 1 0.5t1.25 4.5-0.75 3h-1.5l-0.25-3.5q-0.25-3.5 0.25-4.5zm-1 12v-2l1.25 0.5q1.25 0.5 1.5 2t-1.25 1.5-1.5-2zm6 64.75q5-0.25 6 1.75t-3.75 2.75-5 1.75 2.75 2.25 3.5 1.75-3 1.25-3.5 1.75 1.5 0.75l1.5-0.25 2.75 0.75q2.75 0.75 3.5 2.5t-5.5 2-5.75-6.25 0.25-9.5 4.75-3.25zm-2.5 21.75h2.5l2.25 2.25q2.25 2.25 2 2.5t-5.25 0.5-4.5-2.5 3-2.75zm-1-180h1.5l-1.25 0.25q-1.25 0.25-1.5 0l-0.25-0.25h1.5zm-0.25 28.75l0.25-0.25v3l-0.25-1.25q-0.25-1.25 0-1.5zm1.25 35l1.5-0.25-0.5 1.75q-0.5 1.75-1.75 1.5t-1-1.5 1.75-1.5zm-1.75 12.25q0.75-2.5 1.25-2t0.75 2.5l0.25 2h-3l0.75-2.5zm0 77.5q0.25-2 2.5-1t3 1.75l0.75 0.75-3.25 0.25q-3.25 0.25-3-1.75zm1.75-131.75q1.5-0.25 1.5 0.75t-1.5 0.25l-1.5-0.75 1.5-0.25zm-0.75 25.75l0.75-3 1.25 3q1.25 3-0.75 3t-1.25-3zm-0.75 7v-2l1.25 0.5q1.25 0.5 1.5 2t-1.25 1.5-1.5-2zm1.25 3.25q0.25-0.25 0.75 0.25t0.5 2v1.5l-0.75-1.75q-0.75-1.75-0.5-2zm-0.25 84.25l0.5-2.5 2.75 2.25q2.75 2.25-0.5 2.5t-2.75-2.25zm0.25-128.5q-0.25-1 1.75 0.25l2 1.25-1.75-0.25q-1.75-0.25-2-1.25zm2.25 22.25q1.5-0.25 1.5 0.75t-1.75 1.5l-1.75 0.5 0.25-1.25q0.25-1.25 1.75-1.5zm-2.25 5.75l-0.25-1h2q2 0 2 1.5t-1.75 1-2-1.5zm3.25 78.5q1.5 0 3.5 0.75t2.5 2-1 1.75-5 0.75-2.75-2.25l0.75-2.5 0.25-0.25q0.25-0.25 1.75-0.25zm-3.25 9.5q-0.25-2 1.75-0.75t2 2.25v1l2 1q2 1 6 0.25t4 0.25 1 1h1v1.5q0 1.5-3.5 0.5t-3.5 0-4 1.25-5.5-2-1-3 0.25-1-0.5-2.25zm4.75 17.5h4l0.5 1q0.5 1-4.25 0.25t-4.5-1 4.25-0.25zm-3.75-199.5l-0.25-1 1.25 0.5q1.25 0.5 1.5 1.5l0.25 1-1.25-0.5q-1.25-0.5-1.5-1.5zm-0.25 62q0-1 1.5-0.25l1.5 0.75-1.5 0.25q-1.5 0.25-1.5-0.75zm1 95.5q0.5-0.5 1.25 1l0.75 1.5-1.25-1q-1.25-1-0.75-1.5zm0 4q0.5-0.5 1.75-0.25t3.5 1 2.5 1-3.75 0.75l-4 0.5-0.25-1.25q-0.25-1.25 0.25-1.75zm1.25-23.25l0.25-0.25 1.75 1q1.75 1 1.75 2v1h-2q-2 0-2-1.75t0.25-2zm-1.25 13.75q0-2 2.75-1t3 1.25l0.25 0.25-3 0.75q-3 0.75-3-1.25zm2-73.5h1-2 1zm-0.75 4q-0.25-1.5 0.75-1.5t0.25 1.5l-0.75 1.5-0.25-1.5zm0.25 37.5q0-3 2.25-0.75t3.25 2.5 1 1.75-3.25 1l-3.25-0.5v-0.5q0-0.5 0-3.5zm-0.5 9v-1h3v1q0 1-1.5 1t-1.5-1zm2.5 3q2-1 3.25 1.25t-1.75 2.25h-3l-0.25-1.25q-0.25-1.25 1.75-2.25zm-2 12.5q0-1.5 0.75-1.25t3.5 1 3.5 1.5-3 1-4 0l-0.25-0.25-0.25-0.25q-0.25-0.25-0.25-1.75zm0.75 23.5q-1.25-2 3.25-1.75l4.5 0.25 2.25 0.75q2.25 0.75 1.5 1t-1.5 0.5-1 0.5-4 0.5-5-1.75zm-0.25-115v-1h1q1 0 1 1v1h-1q-1 0-1-1zm0.25 22l0.25-1 0.75 0.75q0.75 0.75-0.25 1t-0.75-0.75zm0.75 36.5q0.5-1.5 1.75-0.25l1.25 1.25 1 0.25q1 0.25 1.5-1t2.75-0.5 2.5 1.75-3.25 1.75-1.75 1.5 2 2.25-2.75 1-4.25-3-1.25-3 0.5-2zm4 128q2 0 7.75 6.75t6.25 7.75-0.25 2.75-3-0.5l-2.25-2.25-2.5-3.5q-2.5-3.5-2.25-4.5t-3-2-4.5-1.5-1.25-1.5 1.5-1.25l1.5-0.25h2zm-3.25-235l0.75-1.5 0.25 1.5q0.25 1.5-0.75 1.5t-0.25-1.5zm0 90.5q0.25-1 2.25 0.25t2.5 2.5 2.25 2.25 2 2-2.75 0.25l-3-0.75-0.25-0.25q-0.25-0.25-0.5-1.75t-1.5-2.5-1-2zm-0.5 9.5q-0.25-2.5 0.75-2.5t1 1v1l2 1.25q2 1.25 2.5 2.5t-2.75 0.25-3.5-3.5zm1 76.5q-1.25-2 2.75-1.75l4 0.25 0.25 0.25q0.25 0.25 0.5 1.75t-3 1.5-4.5-2zm3.75-92.5q3 0 3 1v1l-3.5 0.25q-3.5 0.25-3-1t3.5-1.25zm-3.25 68q0.75-1.5 2-1.25t1.75 0.25 2.25 0.25 1.5 1l-0.25 0.75-0.25-0.25q-0.25-0.25-0.5 0.75t-3.75 0.5-2.75-2zm6.75 35.5q7.5-1 8.75 1t3.5 4.75l2.25 2.75 0.25 0.25q0.25 0.25 0.5 3.25t-0.75 3-2.25-2.5-3.5-5.5-3.25-3-1.5-1.25-1.5-1.5-1 1.25-3 1.75-3.5-0.25l-0.5-0.5-1-0.25q-1-0.25-1-1.25t7.5-2zm-4.75 11.5q2.75-0.5 4 0.25l1.25 0.75 1 1.75q1 1.75-0.5 1.5t-4.75-1-3.5-1.75 2.5-1.5zm-2 15l-0.75-1.5h1.5q1.5 0 1.5 1t1.25 1.5 1.5 1.5-2 0-3-2.5zm3.75 14q4.5 0 9.25 5.75t4.25 9.25-1.25 2.25-1.75-1.5-1.5-1.5l-0.5-1.25-2.25-3.25q-2.25-3.25-2-4.25t-2-1-4.25-2l-2-2-0.25-0.25q-0.25-0.25 4.25-0.25zm0-106q2.5 0 3 0.5l0.5 0.5 0.5 1.25q0.5 1.25-2.25 1.25t-3.5-1.75 1.75-1.75zm-2.25-117q-0.25-1.5 1-1t1.5 2l0.25 1.5-1.25-0.5q-1.25-0.5-1.5-2zm0.75 42.75q1-0.25 0.75 0.75l-0.25 1-0.75-0.75q-0.75-0.75 0.25-1zm-0.75 29.75l-0.25-1 1.25 0.5q1.25 0.5 1.5 1.5l0.25 1-1.25-0.5q-1.25-0.5-1.5-1.5zm1.5 55.5q1.75-0.5 3.25 0t2.75 0 1.75 1.5-4 1.75l-4.5-0.25-0.5-1.25q-0.5-1.25 1.25-1.75zm-0.5-62.5l0.25-1 0.75 0.75q0.75 0.75-0.25 1t-0.75-0.75zm4.25 74.5q2.5 0 3 0.5l0.5 0.5 0.5 0.5q0.5 0.5-1 1t-4 0l-2.5-0.5-0.5-0.5q-0.5-0.5 0.5-1t3.5-0.5zm1 22.25q5.5-0.25 6.25 1.5t0.5 2-1.75 0.25h-1.5l-3.25 0.25q-3.25 0.25-4.5-1.75t4.25-2.25zm-4-130.25v-1.5l0.25 1.25q0.25 1.25 0 1.5l-0.25 0.25v-1.5zm2 182.25q2.5-0.25 4 1.25l1.5 1.5 3.25 4.25q3.25 4.25 4 7.25l0.75 3-1.25-0.5q-1.25-0.5-3.75-4t-6.5-7-4.25-4.5 2.25-1.25zm1-205.25q1.5 0 2.25 1.25t1 4-2.25 2l-2.5-0.75 0.5-1.25q0.5-1.25 1.5-1.75t-0.75-1.75-1.5-1.5 1.75-0.25zm-2.25 52.5l-0.25-1 1.25 0.5q1.25 0.5 1.5 1.5l0.25 1-1.25-0.5q-1.25-0.5-1.5-1.5zm-0.25 23q0-1 4-0.25l4 0.75 0.25 1.25q0.25 1.25 0 2.25t2 1.5 2.5 1.5-3 1-3.5-2-2.25-2.5-2-1.5-1-1-1-1zm3.5 67q3.5-0.5 4.5 0l1 0.5 0.5 1.25q0.5 1.25-3 1.5t-4.5 0l-1-0.25-0.5-1.25q-0.5-1.25 3-1.75zm0.5 48.75q4-0.25 7.75 4t4.5 7.25-1.25 1.75-2.5-2.5-2.5-2.5-3.25-3l-1.25-1.75-1.75-1q-1.75-1-2.5-0.5t-1-0.5 3.75-1.25zm-1.5 6.75q1.5 0 3.75 1.25l2.25 1.25 3 4q3 4 3.5 5l0.5 1 0.25 1.25q0.25 1.25-0.5 2t-2.75-1.75-5.25-6.25-5.25-5.25-1.5-2 2-0.5zm0-164h1.5l-1.25 0.25q-1.25 0.25-1.5 0l-0.25-0.25h1.5zm-0.5 9.75q1-0.25 0.75 0.75l-0.25 1-0.75-0.75q-0.75-0.75 0.25-1zm0 4q1-0.25 0.75 0.75l-0.25 1-0.75-0.75q-0.75-0.75 0.25-1zm1.25 11.5q2.25-0.75 2.5-0.5t2.25 1.25l2 1-4.5-0.5q-4.5-0.5-2.25-1.25zm-2 44.25q-0.25-1 3.75-0.5l4 0.5v1q0 1-2.5 1.25t-3.75-0.5-1.5-1.75zm0.25 11q-0.5-2 4.25-0.5t5 1.75-4.25 0.5l-4.5 0.25-0.5-2zm3.5 10q4-0.5 4.5 0l0.5 0.5 0.5 1.25q0.5 1.25-4 1.25h-4.5l-0.5-1.25q-0.5-1.25 3.5-1.75zm-1.75 54.5q2.25-0.5 3.5 0t2.5 2.5 4.25 6 3.25 6.5-0.75 2.5-2.25-2-2-2.75l-0.75-0.75-2.25-2.25q-2.25-2.25-2.5-3.75t-2.5-2.5-2.5-2 2-1.5zm-0.5-92q-0.75-1.5 3.5-0.5t4 2.25l-0.25 1.25-3.25-0.75q-3.25-0.75-4-2.25zm1.25-62.5l-0.5-3 1 1.5q1 1.5 0.5 3t-1-1.5zm-1 39.5v-1.5h1q1 0 1 1.5v1.5h-1q-1 0-1-1.5zm8 32.5q6-0.5 9.75 4.25t4.25 5.75 0.75 4-0.75 3-2.25-2.5-4.25-7-4.25-5-1.75 0.75 1.75 2.5 2.75 2.25l0.5 1 2.5 3.5q2.5 3.5 3.75 7.5t0.25 4h-1l-1.25-2.5q-1.25-2.5-4.25-6.5t-2.75-5-1.5-1.5-2.5-2.25-3.5-2.5-2.5-2 6.25-1.75zm-6.25 65l-0.75-2 2.5 0.5q2.5 0.5 2.5 2.25t-1.75 1.5-2.5-2.25zm1.25-145.5q1 0 1.5 0.5l0.5 0.5-1.5-0.5-1.5-0.5h1zm-1 54.5q0-1 6.5-0.25t5 1.25-3.5 0.5h-2l-3-0.25q-3-0.25-3-1.25zm2.5-36.5h1.5l-1.25 0.25q-1.25 0.25-1.5 0l-0.25-0.25h1.5zm-0.75 103q-0.75-1.5 2-0.5t3 2.5l0.25 1.5-2.25-1q-2.25-1-3-2.5zm2.5-123.5q-2.25-3-1-2.5t1.5 1.5 1.25 1.25l1 0.25 1.5 0.5q1.5 0.5 2.75-0.25t1.5-1.75 1.5 0-0.5 2.25-4.5 1.5-5-2.75zm-1 49.25l0.25-0.25v3l-0.25-1.25q-0.25-1.25 0-1.5zm-0.25 45.25l0.5-1.5 2.75 1.75 2.75 1.75-0.5 0.5q-0.5 0.5-3.25-0.25t-2.25-2.25zm2 40q3 0 5.75 3.75t4 8.25 0 4-4.25-5l-3-4.5-0.25-2q-0.25-2-2.5-3t-2.5-1.25 2.75-0.25zm0 18q2 0 5.25 4.25t3.5 6.75-0.75 2.5-2.25-2-2-3.5l-0.75-1.5-1.25-0.5q-1.25-0.5-2.5-3.25t0.75-2.75zm-1.75-146q-0.25-1.5 2.5-1l2.75 0.5 0.25-0.25q0.25-0.25 14.75-0.5l14.5-0.25v1q0 1-5.25 1.5t-5.75 1.5l-0.5 1-0.25-1.5q-0.25-1.5-11.5-1t-11.5-1zm6.25 93q1.5 0 4.25 3.75t3.75 5.25 0.75 4.25-1.25 2.5 0.25 3.75 0.75 6.5-1 5.5l-0.5 3-2.25-2.75q-2.25-2.75-3.25-3t-2-4.25-3.25-5-2-1.75 3.5 0 5.5 3.5l2.25 2.75-0.25-1.25q-0.25-1.25-2.25-3.75t-4.25-5.25-1.25-3.75-1.25-1.75-2-2l0.25-1.25 2.5 0.25q2.5 0.25 3.75 2.75t2.25 4l1 1.5h1q1 0-2-4.5t-4-6.5-0.75-2.25 1.75-0.25zm-5-56.5zm2 34.5q1.5 0 2.5 1.75l1 1.75-2.75-1q-2.75-1-2.5-1.75t1.75-0.75zm-0.5 68q2 0 3.5 2l1.5 2 1.75 2.25q1.75 2.25 1 3.5t-3.5-2-3-4.25-1.25-1-1.5-1.25 1.5-1.25zm-0.5-82.5q-0.5-2 2.25-1t3 2l0.25 1h-2.5q-2.5 0-3-2zm0.5-27.5v-1.5l1.25 1q1.25 1 0 1.5l-1.25 0.5v-1.5zm2.25-27.25q0.25-0.25 0.25 2.25v2.5l-0.25-2.25q-0.25-2.25 0-2.5zm-1.25 8.75q0-1 2-0.75t4 0 2 0.75v1h-4q-4 0-4-1zm1.25 12.25l0.25-0.25v3l-0.25-1.25q-0.25-1.25 0-1.5zm-1.25 21.25v-1.5h1q1 0 1 1.5v1.5h-1q-1 0-1-1.5zm2 21q1 0 2.25 0.75t4.75 6.25 4.75 8.5 0.25 3-2.25-2.5-1.5-2.75l-0.25-0.25-2.5-3.5q-2.5-3.5-2.5-4.5t-0.5-1-2.25-0.75-1.5-2l0.25-1.25h1zm-0.25 60q-1.75-3.5-0.25-3.5t2.75 2 1.75 3l0.5 1 1.5 2.5q1.5 2.5 0.75 3.75t-3-2-4-6.75zm0.25-104.5q0-1 1.5-0.75l1.5 0.25-1.5 0.75q-1.5 0.75-1.5-0.25zm0 12.5v-1.5h3v3h-3v-1.5zm2.5 28q2.5 0 6.75 5.25l4.25 5.25 0.25 3q0.25 3-0.75 3t-2.5-3.25-3-5.5-2.5-2.25-1-1.5-2-2.75 0.5-1.25zm-0.5-47h1-2 1zm0.75 192.5l-0.75-2 1.25 0.5q1.25 0.5 0.75 2t-1.25-0.5zm0.5-163q-0.25-1 5.25-0.25t1.5 1.25l-4 0.5-1.25-0.25q-1.25-0.25-1.5-1.25zm0 11q-0.25-1 2 0t5.25 5 2.25 5.75-3-1.5l-2.25-3.25-2-2.5q-2-2.5-2.25-3.5zm1.25-49zm0.5 31.5h1-2 1zm1-50q0.5-1.5 1-1t0.75 2l0.25 1.5-1.25-0.5q-1.25-0.5-0.75-2zm0.75-4.75q0.75-0.75 1.5 0l0.75 0.75h-3l0.75-0.75zm0.25 31.75h1-2 1zm-1 6.5q0-1 1.5-0.75l1.5 0.25-1.5 0.75q-1.5 0.75-1.5-0.25zm1.5 29.5q1.5 0 2.5 1l1 1 1.75 2.25q1.75 2.25 1 3.5t-4.25-3.25-2-4.5zm12.5-16q0-2.5 1.75-1.5t2 0 1.25-1 0.5 3l-0.5 3-7-0.75-7-0.75h0.5q0.5 0 4.5 0.25t4-2.25zm-11-28h1-2 1zm0.5 17.75q1.5-0.25 1.5 0.75t-1.5 0.25l-1.5-0.75 1.5-0.25zm-1.5 4.75v-1h1q1 0 1 1v1h-1q-1 0-1-1zm3-39.5q1 0 3.25 2.25t3 2.5 2 0.5 1.5 1.25-5.75 1-6-1.5 2.5-0.5 2.25 0l-0.25-1-1.75-2.25q-1.75-2.25-0.75-2.25zm5 21q6 0 6.25 0.25l0.25 0.25 0.25 0.25q0.25 0.25-6 0l-6.25-0.25-0.25-0.25q-0.25-0.25 5.75-0.25zm-5 4h1-2 1zm-1 19v-1.5h1q1 0 1 1.5v1.5h-1q-1 0-1-1.5zm4 16.75q2-0.25 2 1.75t-1.25 1.5-2-1.75l-0.75-1.25 2-0.25zm-1 59.25q0.5-4.5 1-2t-0.5 4.5l-1 2 0.5-4.5zm1.5-123q1.5 0 2.5 0.25t0.5 1-2.5-0.25l-2-1h1.5zm-1.5 18.5q0-2 1-1.75l1 0.25-0.25 0.75q-0.25 0.75 0 1.75t-0.75 1-1-2zm5 9q-1-0.5 0 0l1 0.5-1-0.5zm2.5 10.25q6.5-0.25 6 2.5t-2.5 3-2-0.75v-1h1.5q1.5 0 1.5-1t-5.5-1.75 1-1zm-6 72.25v-1.5l0.25 1.25q0.25 1.25 0 1.5t-0.25-1.25zm0.5-67.5q0-1 2.5-1t1.5 3.25l-1 3.25-1.5 0.25q-1.5 0.25-1.5-1.25t1-1.5 1-1-1-1-1-1zm0 56v-1h1q1 0 1 1v1h-1q-1 0-1-1zm1-41q0-1 5-0.25l5 0.75-1.5 0.5q-1.5 0.5-5 0.25l-3.5-0.25v-1zm0.75 30.5l0.75-1.5 0.25 1.5q0.25 1.5-0.75 1.5t-0.25-1.5zm0.25-10.5v-1h1q1 0 1 1v1h-1q-1 0-1-1zm1.25-5.5l0.25-1.5 0.75 1.5q0.75 1.5-0.25 1.5t-0.75-1.5zm3-55.5q0.25-1 0.5-0.75t1.75 0.25h1.5l3.5 0.5q3.5 0.5-2 0.75t-5.25-0.75zm4.25-34q1.5-0.5 1.75-0.25l0.25 0.25-0.5 3q-0.5 3-1.25 1.25t-1.25-2.75 1-1.5zm-2.25 19l-0.25-1h1q1 0 2.25 2.5t1.75 4.5 0.25 2.25-2.5 0-2.5-1.25 1.25-1.75 0.25-2.5-1.5-2.75zm-0.25 33q0-1 2-0.25l2 0.75-2 0.25q-2 0.25-2-0.75zm4-14.5h1-2 1zm2.25-22.75q-0.25-1.25 0 0l0.25 1.25-0.25-1.25zm-2 28.75q-0.25-1.5 0.75-1.5t0.75 2l-0.25 2-0.5-0.5q-0.5-0.5-0.75-2zm3 0q-0.25-1.5 0.75-1.5t0.75 2l-0.25 2-0.5-0.5q-0.5-0.5-0.75-2z" fill="inherit"/><path d="m45 151.5q2 0 3.25 0.75l1.25 0.75-0.25 0.75q-0.25 0.75-4.25 1.5t-3-1.5 3-2.25z" fill="inherit"/><path d="m63.75 216.5q2.25-1.5 1 0.5t-4.75 10.5l-3.5 8.5-1 2q-1 2-0.5-2.5t3.5-11l3-6.5 2.25-1.5z" fill="inherit"/><path d="m64.5 226.5q2-2.5 2.5-1.5t-1.5 4l-2 3-2.5 6q-2.5 6-3 5t0-2l0.5-1 2-5.5q2-5.5 4-8z" fill="inherit"/><path d="m64.75 246.5q1.25-3.5 2.25-3.5h1l-1.25 4q-1.25 4-3.5 13t-3.25 9h-1l2.25-9.5q2.25-9.5 3.5-13z" fill="inherit"/><path d="m66.75 231.75q0.75-0.75 1.25 0.25t-2.75 8.75-4.25 8l-1 0.25 1.25-4.5q1.25-4.5 3-8.25l1.75-3.75 0.75-0.75z" fill="inherit"/><path d="m67 257.25q1-0.25-1 10.25t-3 10.5h-1l0.75-7 0.75-7 1.25-3.25q1.25-3.25 2.25-3.5z" fill="inherit"/><path d="m65.25 278q0.75-3 1.75-3t-0.25 7-1.75 6.5-0.5-4v-3.5l0.75-3z" fill="inherit"/><path d="m77.25 183.25q0.25-0.25 1.5 0.25t1.75 6-1.75 5-2.75-3.5l-0.5-3 0.75-2.25q0.75-2.25 1-2.5z" fill="inherit"/><path d="m77 153l0.5-2 2 1.5q2 1.5 1.5 3l-0.5 1.5-2-1q-2-1-1.5-3z" fill="inherit"/><path d="m83 329.5h1l-0.75 1.75q-0.75 1.75-1.5 3.5t-1.75 2l-1 0.25 1.5-3.75q1.5-3.75 2.5-3.75z" fill="inherit"/><path d="m85 310.25q1-0.25-0.5 4.25t-2.75 4-0.75-1.5l0.5-1 1.25-2.75q1.25-2.75 2.25-3z" fill="inherit"/><path d="m93 303.5q0.5-0.5-0.25 2.75t-1 3.5l-0.25 0.25-3.25 7.75q-3.25 7.75-3.5 8t0.25-2.75 1-4l0.5-1 3-7q3-7 3.5-7.5z" fill="inherit"/><path d="m86.75 334q0.25-2 1.25-2t0 4.5-2.5 4.5-1.25-1l0.25-1 1-1.5q1-1.5 1.25-3.5z" fill="inherit"/><path d="m88 134.75q3-0.25 4 1.25l1 1.5 0.75 1.25q0.75 1.25 2.75 7.25t1.75 7.75l-0.25 1.75-1.5 0.25q-1.5 0.25-3.25-4.25t-3.75-7-3-3.5-1.25-3.5 2.75-2.75z" fill="inherit"/><path d="m87 183.5h1l0.75 1.25q0.75 1.25 1 5.75t-2 4l-2.25-0.5 0.25-5.25q0.25-5.25 1.25-5.25z" fill="inherit"/><path d="m87.75 292q0.25-1 1.25-1t0 3.25-2.5 2.75l-1.5-0.5 1.25-1.75q1.25-1.75 1.5-2.75z" fill="inherit"/><path d="m90 327.5l0.5-2.5-0.5 2.5-0.5 2.5 0.5-2.5z" fill="inherit"/><path d="m94.75 278.25q1.75-2.25 2.25-0.75t-1 4-2.75 5-2.25 2.5 0.25-4 1.5-4.25l0.25-0.25 1.75-2.25z" fill="inherit"/><path d="m94.25 189q-0.25-4 0.75-4h1l-0.25 4.5-0.25 4.5-0.5-0.5q-0.5-0.5-0.75-4.5z" fill="inherit"/><path d="m104.5 183.5q1.5 0 5.25 1.25t3 5-1 4l-0.25 0.25-1.75 1.25q-1.75 1.25-4 1t-3-1.5-1.75-1.5-1.5-3.5-0.25-3.5l0.25-0.25 1.75-1.25q1.75-1.25 3.25-1.25zm0 3h1.5l0.75 1.75q0.75 1.75 0 2.5l-0.75 0.75h-3l-0.25-0.25q-0.25-0.25 0-2.5l0.25-2.25h1.5z" fill="inherit"/><path d="m123.5 142.5q1.5 0 2.25 0.75t0 3.5-1.75 3.75l-1 1-2 2.5q-2 2.5-3.75 1.75t-1-4.75 1.75-4 2.25-2 1.5-2.25 1.75-0.25zm-5.25 8.5q0.75-3 1.75-3t0 2.25-1.75 3l-0.75 0.75 0.75-3z" fill="inherit"/><path d="m120 184.5q1 0 1.25 0.25t-0.5 5.5-1.5 4.5-1.25-3.25l-0.5-2.5 0.75-2.25q0.75-2.25 1.75-2.25z" fill="inherit"/><path d="m130.5 245q2-2 1.5 0t-3 5.5-4 6-3.75 6.75-3.25 4.5 0.25-2.75l1.25-3 4.5-7.5 4.5-7.5 2-2z" fill="inherit"/><path d="m123 221.25q1-0.25 0.25 1.75l-0.75 2-2 3q-2 3-1.5 1t1.75-4.75 2.25-3z" fill="inherit"/><path d="m132.5 235q1-1 1.5 0.5t-1.75 4.75-3.25 3.5-2.25 2.75-2.25 4l-1 1.5-2 3q-2 3-1.25 0.25t3-6 5.25-8.25l3-5 1-1z" fill="inherit"/><path d="m127 153.5q2 0 2 1t-0.75 0.75l-0.75-0.25-1.5 0.5q-1.5 0.5-1.25-0.75t2.25-1.25z" fill="inherit"/><path d="m125.25 217l1.25-2-0.25 1.75q-0.25 1.75-1.25 2t0.25-1.75z" fill="inherit"/><path d="m131.5 184.25q1.5-0.25 1.5 5.25t-2 5.5-2.25-1.5l-0.25-1.5 0.75-3.75q0.75-3.75 2.25-4z" fill="inherit"/><path d="m152 559.5q-1-6.5 0.25-6t2.75 4l1.5 3.5 0.25 2.25q0.25 2.25-1.75 2.5t-3-6.25z" fill="inherit"/><path d="m159.5 570.5q1.5 0 2 1.25t-1 1.25-2-1.25l-0.5-1.25h1.5z" fill="inherit"/><path d="m165.25 568.75q-0.75-1.75 2 1.25l2.75 3-2-1.25q-2-1.25-2.75-3z" fill="inherit"/><path d="m165 173q0-1 15-1t15 1v1h-30v-1z" fill="inherit"/><path d="m194 273q8-0.5 9-0.5h1l4-0.25q4-0.25 4 0.75t-15 1.25-13.5-0.25 1.75-0.25l0.25 0.25 0.25-0.25q0.25-0.25 8.25-0.75z" fill="inherit"/><path d="m192.75 219.75q8.75-0.75 9.5-0.5t3.25 0 2.5 0.75v1l-9.5 0.75-9.5 0.75-2.75-0.75q-2.75-0.75-2.5-1t9-1z" fill="inherit"/><path d="m199 226.75l11-0.75v1q0 1-12.75 2t-12.5 0.25 1.75-1.25l1.5-0.5 11-0.75z" fill="inherit"/><path d="m185.25 213q-0.25-1 2.75-0.75t5 0 2 0.75v1h-9.5l-0.25-1z" fill="inherit"/><path d="m199 266.25q13-0.75 14-0.25l1 0.5-0.5 0.5q-0.5 0.5-14 1.25l-13.5 0.75v-1q0-1 13-1.75z" fill="inherit"/><path d="m191 253.5q0.5-0.5 1.75-0.25t1.75 0.25h0.5l4.5 0.5 4.5 0.5-1 0.5q-1 0.5-6.75-0.25t-5.25-1.25z" fill="inherit"/><path d="m202.5 247.5q11.5-0.5 11.5 0.5v1l-10.5 0.75-10.5 0.75-0.75-0.25q-0.75-0.25-1-1.25t11.25-1.5z" fill="inherit"/><path d="m201.25 234.25q8.25-1.25 8.5-1t2.25 0.5l2 0.25v1q0 1-9.5 1.75l-9.5 0.75-1.25-0.75q-1.25-0.75-1-1t8.5-1.5z" fill="inherit"/><path d="m194.25 241.5q1.25-0.5 1.5-0.25t10.25 0 10 0.75v1l-8 0.25-8 0.25-3.5 0.25q-3.5 0.25-3.5-0.75t1.25-1.5z" fill="inherit"/><path d="m206.5 254q1.5-0.5 2-0.5t3-0.25 2.5 0.75v1l-4.5-0.25-4.5-0.25 1.5-0.5z" fill="inherit"/></g></svg>